<svg xmlns="http://www.w3.org/2000/svg" viewBox="0 0 58.53 22"><defs><style>.cls-1{fill:#f1f1f2;stroke:#808184;stroke-miterlimit:10;}.cls-2{fill:#da4536;}.cls-3{fill:#404041;}</style></defs><title>news-page-google</title><g id="Layer_2" data-name="Layer 2"><g id="pages"><path class="cls-1" d="M58,19.42a2,2,0,0,1-1.9,2.08H2.41A2,2,0,0,1,.5,19.42V2.58A2,2,0,0,1,2.41.5H56.13A2,2,0,0,1,58,2.58Z"/><polygon class="cls-2" points="22.47 8.64 20.75 8.64 20.75 10.36 19.04 10.36 19.04 12.08 20.75 12.08 20.75 13.8 22.47 13.8 22.47 12.08 24.19 12.08 24.19 10.36 22.47 10.36 22.47 8.64"/><path class="cls-2" d="M10.74,10.36v2.41h3.37a3.17,3.17,0,0,1-3.37,2.51,3.78,3.78,0,0,1,0-7.55,3.32,3.32,0,0,1,2.4.91l1.77-1.77a6.18,6.18,0,0,0-4.17-1.6,6.24,6.24,0,1,0,0,12.47,5.75,5.75,0,0,0,6-6.06,9,9,0,0,0-.12-1.32Z"/><path class="cls-3" d="M28.4,12.82l1.38-.21a1,1,0,0,0,.36.61,1.21,1.21,0,0,0,.76.21,1.37,1.37,0,0,0,.8-.19.46.46,0,0,0,.18-.37.37.37,0,0,0-.09-.26,1,1,0,0,0-.47-.18,7.29,7.29,0,0,1-2.11-.68,1.32,1.32,0,0,1-.62-1.17,1.47,1.47,0,0,1,.53-1.14A2.49,2.49,0,0,1,30.78,9a2.86,2.86,0,0,1,1.6.35,1.77,1.77,0,0,1,.71,1l-1.3.24a.76.76,0,0,0-.32-.47,1.11,1.11,0,0,0-.66-.16,1.51,1.51,0,0,0-.78.15.32.32,0,0,0-.16.28.31.31,0,0,0,.14.25A5.22,5.22,0,0,0,31.3,11a4,4,0,0,1,1.54.61,1.28,1.28,0,0,1,.43,1,1.56,1.56,0,0,1-.6,1.23,2.62,2.62,0,0,1-1.77.52A2.9,2.9,0,0,1,29.21,14,2,2,0,0,1,28.4,12.82Z"/><path class="cls-3" d="M35.85,7.11V9.76A2,2,0,0,1,37.45,9a2.13,2.13,0,0,1,.86.17,1.37,1.37,0,0,1,.58.46,1.47,1.47,0,0,1,.26.6,5.17,5.17,0,0,1,.08,1v3.06H37.84V11.56a4.46,4.46,0,0,0-.07-1.05.8.8,0,0,0-.28-.35A1,1,0,0,0,37,10a1.14,1.14,0,0,0-.61.17,1,1,0,0,0-.4.5,3.14,3.14,0,0,0-.13,1v2.61H34.47V7.11Z"/><path class="cls-3" d="M41.66,10.69l-1.26-.23a2,2,0,0,1,.73-1.12A2.7,2.7,0,0,1,42.66,9,3.24,3.24,0,0,1,44,9.2a1.41,1.41,0,0,1,.64.55A2.92,2.92,0,0,1,44.86,11V12.6a6.12,6.12,0,0,0,.06,1,3.3,3.3,0,0,0,.25.7H43.8a2.66,2.66,0,0,1-.14-.41,1.66,1.66,0,0,0,0-.16,2.47,2.47,0,0,1-.75.52,2.27,2.27,0,0,1-.86.17A1.78,1.78,0,0,1,40.73,14a1.45,1.45,0,0,1-.47-1.1,1.48,1.48,0,0,1,.21-.79,1.35,1.35,0,0,1,.6-.53,4.67,4.67,0,0,1,1.09-.32,7.9,7.9,0,0,0,1.35-.34v-.14a.73.73,0,0,0-.2-.57,1.2,1.2,0,0,0-.74-.17,1,1,0,0,0-.58.15A.91.91,0,0,0,41.66,10.69Zm1.85,1.12a8,8,0,0,1-.85.21,2.48,2.48,0,0,0-.75.24.58.58,0,0,0-.27.49.66.66,0,0,0,.22.5.75.75,0,0,0,.55.21,1.14,1.14,0,0,0,.71-.25.81.81,0,0,0,.33-.45,2.54,2.54,0,0,0,.06-.68Z"/><path class="cls-3" d="M47.54,14.31H46.16V9.09h1.29v.75a2.33,2.33,0,0,1,.59-.7A1.07,1.07,0,0,1,48.63,9a1.68,1.68,0,0,1,.91.26l-.42,1.2a1.25,1.25,0,0,0-.65-.23.78.78,0,0,0-.49.16,1.09,1.09,0,0,0-.32.58,7.9,7.9,0,0,0-.12,1.75Z"/><path class="cls-3" d="M53.16,12.65l1.38.23A2.31,2.31,0,0,1,53.7,14a2.48,2.48,0,0,1-1.43.39,2.36,2.36,0,0,1-2-.89,3,3,0,0,1-.51-1.8,2.89,2.89,0,0,1,.67-2A2.25,2.25,0,0,1,52.13,9,2.31,2.31,0,0,1,54,9.75a3.42,3.42,0,0,1,.64,2.35H51.15a1.43,1.43,0,0,0,.33,1,1.05,1.05,0,0,0,.8.34.85.85,0,0,0,.55-.18A1.2,1.2,0,0,0,53.16,12.65Zm.08-1.39a1.29,1.29,0,0,0-.31-.91,1,1,0,0,0-1.47,0,1.33,1.33,0,0,0-.29.9Z"/></g></g></svg>