<svg xmlns="http://www.w3.org/2000/svg" viewBox="0 0 69.19 20.75"><defs><style>.cls-1{fill:#5fa8dc;}.cls-2{fill:#fff;}.cls-3{isolation:isolate;}</style></defs><title>news-page-tweet</title><g id="Layer_2" data-name="Layer 2"><g id="pages"><path class="cls-1" d="M69.17,19.75a1,1,0,0,1-1.08,1h-67a1,1,0,0,1-1.08-1V1A1,1,0,0,1,1.08,0h67a1,1,0,0,1,1.09,1V19.75Z"/><path class="cls-2" d="M18.13,7.54a2.71,2.71,0,0,1-1.3.3,2.44,2.44,0,0,0,1-1.09,5.7,5.7,0,0,1-1.39.5,2.25,2.25,0,0,0-1.52-.59,2.08,2.08,0,0,0-2.15,2,.83.83,0,0,0,.11.5A7.11,7.11,0,0,1,8.43,7a1.57,1.57,0,0,0-.21,1,1.84,1.84,0,0,0,1,1.59,1.64,1.64,0,0,1-1-.3h0a2,2,0,0,0,1.61,1.88,4.52,4.52,0,0,0-.54.11H8.86a2.16,2.16,0,0,0,1.94,1.39,4.34,4.34,0,0,1-2.6.8H7.66a7.06,7.06,0,0,0,3.24.89,5.79,5.79,0,0,0,6-5.56v-.3A2.62,2.62,0,0,0,18.13,7.54Z"/><g class="cls-3"><path class="cls-2" d="M29.46,5.32V6.74H26.4v7.9H24.51V6.74H21.45V5.32Z"/><path class="cls-2" d="M28.58,8H30a.58.58,0,0,1,.33.08.44.44,0,0,1,.18.21l1,3.53c.05.2.1.38.14.57s.07.37.1.54c.05-.18.1-.35.16-.54s.13-.37.19-.57l1.2-3.54a.41.41,0,0,1,.16-.21A.49.49,0,0,1,33.76,8h.76a.55.55,0,0,1,.32.08.51.51,0,0,1,.18.21l1.15,3.54c.07.2.12.4.18.58s.1.37.15.56l.12-.56a3.83,3.83,0,0,1,.15-.58l1.06-3.53A.38.38,0,0,1,38,8.11.52.52,0,0,1,38.3,8h1.33L37.3,14.64H35.91c-.16,0-.26-.09-.33-.27L34.3,10.54a6.13,6.13,0,0,1-.2-.76,5.56,5.56,0,0,1-.22.77l-1.31,3.82a.35.35,0,0,1-.38.27H30.86Z"/><path class="cls-2" d="M43.51,7.92a4,4,0,0,1,1.26.2,2.8,2.8,0,0,1,1,.58,2.58,2.58,0,0,1,.64.94,3.38,3.38,0,0,1,.24,1.27.81.81,0,0,1-.09.49.37.37,0,0,1-.32.13H41.76a2.33,2.33,0,0,0,.2.88,1.9,1.9,0,0,0,.4.61,1.5,1.5,0,0,0,.61.36,2.29,2.29,0,0,0,.76.12,3.26,3.26,0,0,0,.74-.09,3.78,3.78,0,0,0,.52-.2l.41-.2a.68.68,0,0,1,.33-.09.34.34,0,0,1,.32.15l.51.58a2.7,2.7,0,0,1-.65.52,4.12,4.12,0,0,1-.74.34,5.29,5.29,0,0,1-.79.17,7.11,7.11,0,0,1-.78.05,4.19,4.19,0,0,1-1.4-.24,3.16,3.16,0,0,1-1.12-.67,3.27,3.27,0,0,1-.76-1.11A4,4,0,0,1,40,11.18a3.34,3.34,0,0,1,.24-1.27A3.39,3.39,0,0,1,41,8.86a3.22,3.22,0,0,1,1.09-.69A4.26,4.26,0,0,1,43.51,7.92Zm0,1.15a1.66,1.66,0,0,0-1.19.4,1.83,1.83,0,0,0-.54,1.11h3.26A1.36,1.36,0,0,0,45,10a1.17,1.17,0,0,0-.29-.48,1.27,1.27,0,0,0-.48-.32A1.5,1.5,0,0,0,43.55,9.07Z"/><path class="cls-2" d="M51,7.92a3.92,3.92,0,0,1,1.26.2,2.94,2.94,0,0,1,1,.58,2.71,2.71,0,0,1,.64.94,3.38,3.38,0,0,1,.24,1.27.89.89,0,0,1-.09.49.38.38,0,0,1-.33.13H49.27a2.33,2.33,0,0,0,.2.88,1.9,1.9,0,0,0,.4.61,1.44,1.44,0,0,0,.61.36,2.29,2.29,0,0,0,.76.12,3.26,3.26,0,0,0,.74-.09,3.78,3.78,0,0,0,.52-.2l.41-.2a.68.68,0,0,1,.33-.09.34.34,0,0,1,.32.15l.51.58a2.7,2.7,0,0,1-.65.52,4.46,4.46,0,0,1-.74.34,5.29,5.29,0,0,1-.79.17,7.11,7.11,0,0,1-.78.05,4.19,4.19,0,0,1-1.4-.24,3.16,3.16,0,0,1-1.12-.67,3.27,3.27,0,0,1-.76-1.11,4,4,0,0,1-.28-1.53,3.34,3.34,0,0,1,.24-1.27,3.39,3.39,0,0,1,.68-1.05,3.12,3.12,0,0,1,1.09-.69A4,4,0,0,1,51,7.92Zm0,1.15a1.66,1.66,0,0,0-1.18.4,1.78,1.78,0,0,0-.54,1.11h3.26a1.54,1.54,0,0,0-.1-.58,1.17,1.17,0,0,0-.29-.48,1.35,1.35,0,0,0-.48-.32A1.57,1.57,0,0,0,51,9.07Z"/><path class="cls-2" d="M57.75,14.75a2,2,0,0,1-1.44-.49,1.75,1.75,0,0,1-.5-1.34V9.22h-.75a.35.35,0,0,1-.24-.08.34.34,0,0,1-.1-.25V8.25l1.16-.17.37-1.81a.31.31,0,0,1,.14-.2A.39.39,0,0,1,56.64,6h.89V8.09h1.93V9.22H57.53v3.59a.64.64,0,0,0,.17.49.57.57,0,0,0,.45.17.88.88,0,0,0,.26,0l.19-.07.14-.07a.31.31,0,0,1,.13,0,.21.21,0,0,1,.12,0,.27.27,0,0,1,.1.11l.52.77a2.55,2.55,0,0,1-.87.44A3,3,0,0,1,57.75,14.75Z"/></g></g></g></svg>