<svg xmlns="http://www.w3.org/2000/svg" viewBox="0 0 60.31 21"><defs><style>.cls-1{fill:#4a62ac;}.cls-2{isolation:isolate;font-size:11.85px;font-family:Helvetica-Bold, Helvetica;font-weight:700;}.cls-2,.cls-3{fill:#fff;}</style></defs><title>Asset 6</title><g id="Layer_2" data-name="Layer 2"><g id="pages"><rect class="cls-1" width="60.31" height="21"/><text class="cls-2" transform="translate(21.54 14.8)">Share</text><path class="cls-3" d="M17.5,14.75a2.77,2.77,0,0,1-2.75,2.75H12.92V11.74h1.94l.27-2.1H12.92V8.29a1.36,1.36,0,0,1,.27-.81,1.35,1.35,0,0,1,.92-.26h1.24v-2c-.6,0-1.19-.1-1.73-.1a2.76,2.76,0,0,0-2,.75A2.77,2.77,0,0,0,10.82,8V9.58H8.72v2.1h2.1v5.77H5.65a2.37,2.37,0,0,1-1.88-.76A2.64,2.64,0,0,1,3,14.75v-9a2.64,2.64,0,0,1,.81-1.94A2.64,2.64,0,0,1,5.71,3h9.1a2.6,2.6,0,0,1,1.88.81,2.64,2.64,0,0,1,.81,1.94v9Z"/></g></g></svg>